<svg width="150" height="155" viewBox="0 0 150 155" fill="none" xmlns="http://www.w3.org/2000/svg">
<mask id="mask0_362_275" style="mask-type:luminance" maskUnits="userSpaceOnUse" x="0" y="0" width="150" height="155">
<path d="M0 0H150V154.167H0V0Z" fill="white"/>
</mask>
<g mask="url(#mask0_362_275)">
<path fill-rule="evenodd" clip-rule="evenodd" d="M29.9973 126.337L31.7099 128.063L31.8762 128.233C37.1805 133.888 37.1306 142.977 31.7099 148.546C26.2892 154.115 17.4432 154.167 11.9394 148.717L11.7731 148.546L10.0604 146.804L5.42129 142.02C-0.0492843 136.4 -0.0492843 127.191 5.42129 121.536C10.8919 115.916 19.8875 115.916 25.3581 121.536L29.9973 126.337ZM124.011 47.1008L125.674 45.4095L144.946 25.609C150.416 19.9713 150.416 10.7631 144.946 5.12528C139.442 -0.512463 130.48 -0.512463 125.009 5.12528L104.091 26.6171L94.1141 36.8504C88.644 42.4881 88.644 51.6965 94.1141 57.3342L104.091 67.5676L105.87 69.3785L125.142 89.1792C130.613 94.8165 139.575 94.8165 145.079 89.1792C150.549 83.5582 150.549 74.3325 145.079 68.7122L125.807 48.9118L124.011 47.1008ZM6.21942 5.26198V5.24489C11.69 -0.392882 20.6691 -0.392882 26.1563 5.24489L144.813 127.174C150.3 132.794 150.3 142.02 144.813 147.641C139.326 153.278 130.363 153.278 124.876 147.641L6.21942 25.7116C0.74885 20.091 0.74885 10.8826 6.21942 5.26198ZM6.05315 63.6211C11.5237 58.0005 20.4862 58.0005 25.99 63.6211L39.4918 77.5108L87.9954 127.345C93.4826 132.965 93.4826 142.191 87.9954 147.829C82.5081 153.449 73.5457 153.449 68.0585 147.829L48.8034 128.028L6.05315 84.105C0.565948 78.484 0.565948 69.2418 6.05315 63.6211Z" fill="white"/>
</g>
</svg>
